# xmcd
#
# Track frame offsets: 
#        150
#        14099
#        27470
#        39861
#        52155
#        64558
#        75960
#        85548
#        103019
#        115121
#        134370
#        145308
#        158288
#        170505
#        181868
#        199140
#        213099
#        224666
#        237190
#        255473
#
# Disc length: 3546 seconds
#
# Revision: 0
# Processed by: cddbd v1.5.2PL0 Copyright (c) Steve Scherf et al.
# Submitted via: ExactAudioCopy v1.3
#
DISCID=090dd814
DTITLE=Bobbie Gentry - Ode To Billie Joe
DYEAR=1967
DGENRE=Country
TTITLE0=Mississippi Delta
TTITLE1=I Saw An Angel Die
TTITLE2=Chickasaw County Child
TTITLE3=Sunday Best
TTITLE4=Niki Hoeky
TTITLE5=Papa, Won't You Let Me Go To Town With You?
TTITLE6=Bugs
TTITLE7=Hurry, Tuesday Child
TTITLE8=Lazy Willie
TTITLE9=Ode To Billie Joe
TTITLE10=The Seventh Son [Demo]
TTITLE11=I Saw An Angel Die [Demo]
TTITLE12=Niki Hoeky [Demo]
TTITLE13=Papa, Won't You Let Me Go To Town With You? [Demo]
TTITLE14=Hurry, Tuesday Child [Demo]
TTITLE15=Mississippi Delta [Alternate Version]
TTITLE16=Sunday Best [Alternate Take]
TTITLE17=Show-Off [Stereo Version]
TTITLE18=La Siepe [Bonus Track]
TTITLE19=La Citta E' Grande [Bonus Track]
EXTD=
EXTT0=
EXTT1=
EXTT2=
EXTT3=
EXTT4=
EXTT5=
EXTT6=
EXTT7=
EXTT8=
EXTT9=
EXTT10=
EXTT11=
EXTT12=
EXTT13=
EXTT14=
EXTT15=
EXTT16=
EXTT17=
EXTT18=
EXTT19=
PLAYORDER=
